<svg width="46" height="47" viewBox="0 0 46 47" fill="none" xmlns="http://www.w3.org/2000/svg">
<path d="M14.2991 37.3639H10.619C4.984 36.9614 2.4541 32.6298 2.4541 28.7773C2.4541 24.9248 4.98403 20.574 10.5232 20.1906C11.309 20.114 11.999 20.7273 12.0565 21.5323C12.114 22.3181 11.5199 23.0081 10.7149 23.0656C6.9966 23.334 5.3291 26.1323 5.3291 28.7964C5.3291 31.4606 6.9966 34.2589 10.7149 34.5273H14.2991C15.0849 34.5273 15.7366 35.1789 15.7366 35.9648C15.7366 36.7506 15.0849 37.3639 14.2991 37.3639Z" fill="#115BB9"/>
<path d="M31.9502 37.3639C31.9119 37.3639 31.8927 37.3639 31.8544 37.3639C31.0686 37.3639 30.3403 36.7122 30.3403 35.9264C30.3403 35.1022 30.9536 34.4889 31.7586 34.4889C34.1161 34.4889 36.2244 33.6647 37.8728 32.1889C40.8628 29.5822 41.0544 25.8256 40.2494 23.1806C39.4444 20.5547 37.2019 17.5456 33.2919 17.0664C32.6594 16.9897 32.161 16.5106 32.046 15.8781C31.2794 11.2781 28.8069 8.09641 25.0503 6.94641C21.1786 5.73891 16.6552 6.92724 13.8377 9.87891C11.0969 12.7347 10.4644 16.7406 12.0552 21.1489C12.3236 21.8964 11.9403 22.7206 11.1928 22.9889C10.4453 23.2572 9.6211 22.8739 9.35277 22.1264C7.41694 16.7214 8.29862 11.5464 11.7678 7.90475C15.3136 4.18641 21.0061 2.71056 25.8936 4.20556C30.3786 5.58556 33.541 9.28473 34.691 14.4214C38.601 15.3031 41.7444 18.2739 42.9902 22.3756C44.3511 26.8414 43.1244 31.4414 39.7703 34.3548C37.6428 36.2714 34.8636 37.3639 31.9502 37.3639Z" fill="#115BB9"/>
<path d="M23.0003 42.9989C19.1478 42.9989 15.5445 40.9481 13.5704 37.6323C13.3595 37.3064 13.1487 36.9231 12.9762 36.5014C12.3245 35.1406 11.9795 33.5881 11.9795 31.9781C11.9795 25.9023 16.9245 20.9573 23.0003 20.9573C29.0762 20.9573 34.0212 25.9023 34.0212 31.9781C34.0212 33.6073 33.6762 35.1406 32.9862 36.5589C32.8329 36.9231 32.622 37.3064 32.392 37.6706C30.4562 40.9481 26.8528 42.9989 23.0003 42.9989ZM23.0003 23.8323C18.5153 23.8323 14.8545 27.4931 14.8545 31.9781C14.8545 33.1664 15.1037 34.2781 15.5828 35.2939C15.7362 35.6198 15.8703 35.8881 16.0236 36.1373C17.4803 38.6098 20.1445 40.1239 22.9811 40.1239C25.8178 40.1239 28.482 38.6098 29.9195 36.1756C30.092 35.8881 30.2454 35.6198 30.3604 35.3514C30.8779 34.2973 31.127 33.1856 31.127 31.9973C31.1461 27.4931 27.4853 23.8323 23.0003 23.8323Z" fill="#115BB9"/>
<path d="M21.9074 35.313C21.5432 35.313 21.1791 35.1788 20.8916 34.8913L18.994 32.9938C18.4382 32.438 18.4382 31.518 18.994 30.9622C19.5499 30.4063 20.4699 30.4063 21.0257 30.9622L21.9458 31.8822L25.0124 29.0455C25.6066 28.5088 26.5074 28.5471 27.044 29.1221C27.5807 29.6971 27.5424 30.6172 26.9674 31.1538L22.8849 34.9297C22.5974 35.1788 22.2524 35.313 21.9074 35.313Z" fill="#115BB9"/>
</svg>
