<svg width="99" height="103" viewBox="0 0 99 103" fill="none" xmlns="http://www.w3.org/2000/svg">
<g filter="url(#filter0_d_785_1589)">
<rect x="28" y="24" width="39" height="39" rx="8" fill="#FFB056"/>
</g>
<path d="M55 53V51C55 49.9391 54.5786 48.9217 53.8284 48.1716C53.0783 47.4214 52.0609 47 51 47H43C41.9391 47 40.9217 47.4214 40.1716 48.1716C39.4214 48.9217 39 49.9391 39 51V53" stroke="white" stroke-width="2" stroke-linecap="round" stroke-linejoin="round"/>
<path d="M47 43C49.2091 43 51 41.2091 51 39C51 36.7909 49.2091 35 47 35C44.7909 35 43 36.7909 43 39C43 41.2091 44.7909 43 47 43Z" stroke="white" stroke-width="2" stroke-linecap="round" stroke-linejoin="round"/>
<defs>
<filter id="filter0_d_785_1589" x="-4" y="0" width="103" height="103" filterUnits="userSpaceOnUse" color-interpolation-filters="sRGB">
<feFlood flood-opacity="0" result="BackgroundImageFix"/>
<feColorMatrix in="SourceAlpha" type="matrix" values="0 0 0 0 0 0 0 0 0 0 0 0 0 0 0 0 0 0 127 0" result="hardAlpha"/>
<feOffset dy="8"/>
<feGaussianBlur stdDeviation="16"/>
<feColorMatrix type="matrix" values="0 0 0 0 0.2 0 0 0 0 0.14902 0 0 0 0 0.682353 0 0 0 0.12 0"/>
<feBlend mode="normal" in2="BackgroundImageFix" result="effect1_dropShadow_785_1589"/>
<feBlend mode="normal" in="SourceGraphic" in2="effect1_dropShadow_785_1589" result="shape"/>
</filter>
</defs>
</svg>
