<svg width="52" height="52" viewBox="0 0 52 52" fill="none" xmlns="http://www.w3.org/2000/svg">
<rect x="6" y="6" width="40" height="39" rx="8" fill="#FFB056"/>
<g filter="url(#filter0_d_785_1560)">
<path d="M20 16L17 20V34C17 34.5304 17.2107 35.0391 17.5858 35.4142C17.9609 35.7893 18.4696 36 19 36H33C33.5304 36 34.0391 35.7893 34.4142 35.4142C34.7893 35.0391 35 34.5304 35 34V20L32 16H20Z" stroke="white" stroke-width="2" stroke-linecap="round" stroke-linejoin="round"/>
<path d="M17 20H35" stroke="white" stroke-width="2" stroke-linecap="round" stroke-linejoin="round"/>
<path d="M30 24C30 25.0609 29.5786 26.0783 28.8284 26.8285C28.0783 27.5786 27.0609 28 26 28C24.9391 28 23.9217 27.5786 23.1716 26.8285C22.4214 26.0783 22 25.0609 22 24" stroke="white" stroke-width="2" stroke-linecap="round" stroke-linejoin="round"/>
</g>
<defs>
<filter id="filter0_d_785_1560" x="10" y="14" width="32" height="32" filterUnits="userSpaceOnUse" color-interpolation-filters="sRGB">
<feFlood flood-opacity="0" result="BackgroundImageFix"/>
<feColorMatrix in="SourceAlpha" type="matrix" values="0 0 0 0 0 0 0 0 0 0 0 0 0 0 0 0 0 0 127 0" result="hardAlpha"/>
<feOffset dy="4"/>
<feGaussianBlur stdDeviation="2"/>
<feComposite in2="hardAlpha" operator="out"/>
<feColorMatrix type="matrix" values="0 0 0 0 0 0 0 0 0 0 0 0 0 0 0 0 0 0 0.25 0"/>
<feBlend mode="normal" in2="BackgroundImageFix" result="effect1_dropShadow_785_1560"/>
<feBlend mode="normal" in="SourceGraphic" in2="effect1_dropShadow_785_1560" result="shape"/>
</filter>
</defs>
</svg>
